<svg xmlns="http://www.w3.org/2000/svg" viewBox="0 0 800 450" width="800" height="450" style="max-width:100%;height:auto" font-family="Inter, system-ui, -apple-system, sans-serif">
<rect x="0" y="0" width="800" height="450" fill="#ffffff"/>
<line x1="56" y1="404" x2="776" y2="404" stroke="#e2e8f0" stroke-width="1"/>
<text x="48" y="408" text-anchor="end" font-size="11" fill="#64748b">0</text>
<line x1="56" y1="287.33" x2="776" y2="287.33" stroke="#e2e8f0" stroke-width="1"/>
<text x="48" y="291.33" text-anchor="end" font-size="11" fill="#64748b">100</text>
<line x1="56" y1="170.67" x2="776" y2="170.67" stroke="#e2e8f0" stroke-width="1"/>
<text x="48" y="174.67" text-anchor="end" font-size="11" fill="#64748b">200</text>
<line x1="56" y1="54" x2="776" y2="54" stroke="#e2e8f0" stroke-width="1"/>
<text x="48" y="58" text-anchor="end" font-size="11" fill="#64748b">300</text>
<text x="56" y="422" text-anchor="start" font-size="12" fill="#475569">Q1</text>
<text x="296" y="422" text-anchor="middle" font-size="12" fill="#475569">Q2</text>
<text x="536" y="422" text-anchor="middle" font-size="12" fill="#475569">Q3</text>
<text x="776" y="422" text-anchor="end" font-size="12" fill="#475569">Q4</text>
<path d="M56,264 L296,194 L536,229 L776,124 L776,404 L56,404 Z" fill="#f43f5e" fill-opacity="0.16" stroke="none"/>
<path d="M56,264 L296,194 L536,229 L776,124" fill="none" stroke="#f43f5e" stroke-width="2.5" stroke-linejoin="round" stroke-linecap="round"/>
<circle cx="56" cy="264" r="3.5" fill="#f43f5e" stroke="#ffffff" stroke-width="1.5"/>
<circle cx="296" cy="194" r="3.5" fill="#f43f5e" stroke="#ffffff" stroke-width="1.5"/>
<circle cx="536" cy="229" r="3.5" fill="#f43f5e" stroke="#ffffff" stroke-width="1.5"/>
<circle cx="776" cy="124" r="3.5" fill="#f43f5e" stroke="#ffffff" stroke-width="1.5"/>
<text x="400" y="33" text-anchor="middle" font-size="18" font-weight="700" fill="#0f172a">Revenue Trend</text>
<text x="792" y="442" text-anchor="end" font-size="10" fill="#94a3b8" opacity="0.7">slickfast.com</text>
</svg>
