<svg xmlns="http://www.w3.org/2000/svg" viewBox="0 0 800 450" width="800" height="450" style="max-width:100%;height:auto" font-family="Inter, system-ui, -apple-system, sans-serif">
<rect x="0" y="0" width="800" height="450" fill="#ffffff"/>
<line x1="56" y1="178.5" x2="776" y2="178.5" stroke="#e2e8f0" stroke-width="1"/>
<line x1="56" y1="261.5" x2="776" y2="261.5" stroke="#e2e8f0" stroke-width="1"/>
<text x="48" y="182.5" text-anchor="end" font-size="11" fill="#64748b">20</text>
<text x="48" y="265.5" text-anchor="end" font-size="11" fill="#64748b">20</text>
<line x1="56" y1="137" x2="776" y2="137" stroke="#e2e8f0" stroke-width="1"/>
<line x1="56" y1="303" x2="776" y2="303" stroke="#e2e8f0" stroke-width="1"/>
<text x="48" y="141" text-anchor="end" font-size="11" fill="#64748b">40</text>
<text x="48" y="307" text-anchor="end" font-size="11" fill="#64748b">40</text>
<line x1="56" y1="95.5" x2="776" y2="95.5" stroke="#e2e8f0" stroke-width="1"/>
<line x1="56" y1="344.5" x2="776" y2="344.5" stroke="#e2e8f0" stroke-width="1"/>
<text x="48" y="99.5" text-anchor="end" font-size="11" fill="#64748b">60</text>
<text x="48" y="348.5" text-anchor="end" font-size="11" fill="#64748b">60</text>
<line x1="56" y1="54" x2="776" y2="54" stroke="#e2e8f0" stroke-width="1"/>
<line x1="56" y1="386" x2="776" y2="386" stroke="#e2e8f0" stroke-width="1"/>
<text x="48" y="58" text-anchor="end" font-size="11" fill="#64748b">80</text>
<text x="48" y="390" text-anchor="end" font-size="11" fill="#64748b">80</text>
<path d="M110,220 L110,95.35 Q110,91.35 114,91.35 L178,91.35 Q182,91.35 182,95.35 L182,220 Z" fill="#2563eb"/>
<text x="146" y="84.35" text-anchor="middle" font-size="12" font-weight="600" fill="#334155">62</text>
<path d="M110,220 L182,220 L182,294.85 Q182,298.85 178,298.85 L114,298.85 Q110,298.85 110,294.85 Z" fill="#dc2626"/>
<text x="146" y="314.85" text-anchor="middle" font-size="12" font-weight="600" fill="#334155">38</text>
<path d="M290,220 L290,124.4 Q290,120.4 294,120.4 L358,120.4 Q362,120.4 362,124.4 L362,220 Z" fill="#2563eb"/>
<text x="326" y="113.4" text-anchor="middle" font-size="12" font-weight="600" fill="#334155">48</text>
<path d="M290,220 L362,220 L362,323.9 Q362,327.9 358,327.9 L294,327.9 Q290,327.9 290,323.9 Z" fill="#dc2626"/>
<text x="326" y="343.9" text-anchor="middle" font-size="12" font-weight="600" fill="#334155">52</text>
<path d="M470,220 L470,76.68 Q470,72.68 474,72.68 L538,72.68 Q542,72.68 542,76.68 L542,220 Z" fill="#2563eb"/>
<text x="506" y="65.68" text-anchor="middle" font-size="12" font-weight="600" fill="#334155">71</text>
<path d="M470,220 L542,220 L542,276.18 Q542,280.18 538,280.18 L474,280.18 Q470,280.18 470,276.18 Z" fill="#dc2626"/>
<text x="506" y="296.18" text-anchor="middle" font-size="12" font-weight="600" fill="#334155">29</text>
<path d="M650,220 L650,109.88 Q650,105.88 654,105.88 L718,105.88 Q722,105.88 722,109.88 L722,220 Z" fill="#2563eb"/>
<text x="686" y="98.88" text-anchor="middle" font-size="12" font-weight="600" fill="#334155">55</text>
<path d="M650,220 L722,220 L722,309.38 Q722,313.38 718,313.38 L654,313.38 Q650,313.38 650,309.38 Z" fill="#dc2626"/>
<text x="686" y="329.38" text-anchor="middle" font-size="12" font-weight="600" fill="#334155">45</text>
<line x1="56" y1="220" x2="776" y2="220" stroke="#334155" stroke-width="1.75"/>
<rect x="109.3" y="211" width="73.4" height="18" rx="9" fill="#ffffff"/>
<text x="146" y="224" text-anchor="middle" font-size="11" font-weight="600" fill="#475569">Feature A</text>
<rect x="289.3" y="211" width="73.4" height="18" rx="9" fill="#ffffff"/>
<text x="326" y="224" text-anchor="middle" font-size="11" font-weight="600" fill="#475569">Feature B</text>
<rect x="469.3" y="211" width="73.4" height="18" rx="9" fill="#ffffff"/>
<text x="506" y="224" text-anchor="middle" font-size="11" font-weight="600" fill="#475569">Feature C</text>
<rect x="649.3" y="211" width="73.4" height="18" rx="9" fill="#ffffff"/>
<text x="686" y="224" text-anchor="middle" font-size="11" font-weight="600" fill="#475569">Feature D</text>
<rect x="318.68" y="425" width="11" height="11" rx="2.5" fill="#2563eb"/>
<text x="335.68" y="434" font-size="12" fill="#475569">Agree</text>
<rect x="389.08" y="425" width="11" height="11" rx="2.5" fill="#dc2626"/>
<text x="406.08" y="434" font-size="12" fill="#475569">Disagree</text>
<text x="400" y="33" text-anchor="middle" font-size="18" font-weight="700" fill="#0f172a">Survey: Agree vs Disagree</text>
<text x="792" y="442" text-anchor="end" font-size="10" fill="#94a3b8" opacity="0.7">slickfast.com</text>
</svg>
