<svg xmlns="http://www.w3.org/2000/svg" viewBox="0 0 800 450" width="800" height="450" style="max-width:100%;height:auto" font-family="Inter, system-ui, -apple-system, sans-serif">
<rect x="0" y="0" width="800" height="450" fill="#0b0f17"/>
<line x1="56" y1="404" x2="776" y2="404" stroke="#1e293b" stroke-width="1"/>
<text x="48" y="408" text-anchor="end" font-size="11" fill="#94a3b8">0</text>
<line x1="56" y1="316.5" x2="776" y2="316.5" stroke="#1e293b" stroke-width="1"/>
<text x="48" y="320.5" text-anchor="end" font-size="11" fill="#94a3b8">50</text>
<line x1="56" y1="229" x2="776" y2="229" stroke="#1e293b" stroke-width="1"/>
<text x="48" y="233" text-anchor="end" font-size="11" fill="#94a3b8">100</text>
<line x1="56" y1="141.5" x2="776" y2="141.5" stroke="#1e293b" stroke-width="1"/>
<text x="48" y="145.5" text-anchor="end" font-size="11" fill="#94a3b8">150</text>
<line x1="56" y1="54" x2="776" y2="54" stroke="#1e293b" stroke-width="1"/>
<text x="48" y="58" text-anchor="end" font-size="11" fill="#94a3b8">200</text>
<text x="56" y="422" text-anchor="start" font-size="12" fill="#cbd5e1">A</text>
<text x="200" y="422" text-anchor="middle" font-size="12" fill="#cbd5e1">B</text>
<text x="344" y="422" text-anchor="middle" font-size="12" fill="#cbd5e1">C</text>
<text x="488" y="422" text-anchor="middle" font-size="12" fill="#cbd5e1">D</text>
<text x="632" y="422" text-anchor="middle" font-size="12" fill="#cbd5e1">E</text>
<text x="776" y="422" text-anchor="end" font-size="12" fill="#cbd5e1">F</text>
<path d="M56,334 C80,310.67 152,205.67 200,194 C248,182.33 296,275.67 344,264 C392,252.33 440,132.75 488,124 C536,115.25 584,223.17 632,211.5 C680,199.83 752,80.25 776,54" fill="none" stroke="#ec4899" stroke-width="2.5" stroke-linejoin="round" stroke-linecap="round"/>
<circle cx="56" cy="334" r="3.5" fill="#ec4899" stroke="#0b0f17" stroke-width="1.5"/>
<circle cx="200" cy="194" r="3.5" fill="#ec4899" stroke="#0b0f17" stroke-width="1.5"/>
<circle cx="344" cy="264" r="3.5" fill="#ec4899" stroke="#0b0f17" stroke-width="1.5"/>
<circle cx="488" cy="124" r="3.5" fill="#ec4899" stroke="#0b0f17" stroke-width="1.5"/>
<circle cx="632" cy="211.5" r="3.5" fill="#ec4899" stroke="#0b0f17" stroke-width="1.5"/>
<circle cx="776" cy="54" r="3.5" fill="#ec4899" stroke="#0b0f17" stroke-width="1.5"/>
<text x="400" y="33" text-anchor="middle" font-size="18" font-weight="700" fill="#f1f5f9">Smoothed Signal</text>
<text x="792" y="442" text-anchor="end" font-size="10" fill="#475569" opacity="0.7">slickfast.com</text>
</svg>
