<svg xmlns="http://www.w3.org/2000/svg" viewBox="0 0 560 262" width="560" height="262" style="max-width:100%;height:auto" font-family="Inter, system-ui, -apple-system, sans-serif">
<rect x="0" y="0" width="560" height="262" fill="#ffffff"/>
<text x="280" y="33" text-anchor="middle" font-size="18" font-weight="700" fill="#0f172a">Top regions by revenue</text>
<text x="24" y="79" font-size="14" font-weight="800" fill="#94a3b8">1</text>
<text x="54" y="79" font-size="13" font-weight="600" fill="#334155">East</text>
<rect x="194" y="66" width="272" height="16" rx="8" fill="#f1f5f9"/>
<rect x="194" y="66" width="272" height="16" rx="8" fill="#2563eb"/>
<text x="536" y="79" text-anchor="end" font-size="13" font-weight="700" fill="#334155">610 k</text>
<text x="24" y="119" font-size="14" font-weight="800" fill="#94a3b8">2</text>
<text x="54" y="119" font-size="13" font-weight="600" fill="#334155">North</text>
<rect x="194" y="106" width="272" height="16" rx="8" fill="#f1f5f9"/>
<rect x="194" y="106" width="236.33" height="16" rx="8" fill="#2563eb"/>
<text x="536" y="119" text-anchor="end" font-size="13" font-weight="700" fill="#334155">530 k</text>
<text x="24" y="159" font-size="14" font-weight="800" fill="#94a3b8">3</text>
<text x="54" y="159" font-size="13" font-weight="600" fill="#334155">South</text>
<rect x="194" y="146" width="272" height="16" rx="8" fill="#f1f5f9"/>
<rect x="194" y="146" width="214.03" height="16" rx="8" fill="#2563eb"/>
<text x="536" y="159" text-anchor="end" font-size="13" font-weight="700" fill="#334155">480 k</text>
<text x="24" y="199" font-size="14" font-weight="800" fill="#94a3b8">4</text>
<text x="54" y="199" font-size="13" font-weight="600" fill="#334155">Central</text>
<rect x="194" y="186" width="272" height="16" rx="8" fill="#f1f5f9"/>
<rect x="194" y="186" width="200.66" height="16" rx="8" fill="#2563eb"/>
<text x="536" y="199" text-anchor="end" font-size="13" font-weight="700" fill="#334155">450 k</text>
<text x="24" y="239" font-size="14" font-weight="800" fill="#94a3b8">5</text>
<text x="54" y="239" font-size="13" font-weight="600" fill="#334155">West</text>
<rect x="194" y="226" width="272" height="16" rx="8" fill="#f1f5f9"/>
<rect x="194" y="226" width="173.9" height="16" rx="8" fill="#2563eb"/>
<text x="536" y="239" text-anchor="end" font-size="13" font-weight="700" fill="#334155">390 k</text>
<text x="550" y="253" text-anchor="end" font-size="9" fill="#94a3b8" opacity="0.6">slickfast.com</text>
</svg>
