<svg xmlns="http://www.w3.org/2000/svg" viewBox="0 0 600 246" width="600" height="246" style="max-width:100%;height:auto" font-family="Inter, system-ui, -apple-system, sans-serif">
<rect x="0" y="0" width="600" height="246" fill="#ffffff"/>
<text x="300" y="33" text-anchor="middle" font-size="18" font-weight="700" fill="#0f172a">Quarter to date</text>
<text x="24" y="67" font-size="13" font-weight="600" fill="#475569">Q1 revenue</text>
<text x="576" y="67" text-anchor="end" font-size="13" fill="#334155">82 / 100</text>
<rect x="24" y="76" width="552" height="14" rx="7" fill="#e2e8f0"/>
<rect x="24" y="76" width="452.64" height="14" rx="7" fill="#2563eb"/>
<text x="24" y="113" font-size="13" font-weight="600" fill="#475569">Signups</text>
<text x="576" y="113" text-anchor="end" font-size="13" fill="#334155">1,240 / 2,000</text>
<rect x="24" y="122" width="552" height="14" rx="7" fill="#e2e8f0"/>
<rect x="24" y="122" width="342.24" height="14" rx="7" fill="#7c3aed"/>
<text x="24" y="159" font-size="13" font-weight="600" fill="#475569">Uptime</text>
<text x="576" y="159" text-anchor="end" font-size="13" fill="#334155">99.2%</text>
<rect x="24" y="168" width="552" height="14" rx="7" fill="#e2e8f0"/>
<rect x="24" y="168" width="547.58" height="14" rx="7" fill="#059669"/>
<text x="24" y="205" font-size="13" font-weight="600" fill="#475569">Onboarding</text>
<text x="576" y="205" text-anchor="end" font-size="13" fill="#334155">47 / 60</text>
<rect x="24" y="214" width="552" height="14" rx="7" fill="#e2e8f0"/>
<rect x="24" y="214" width="432.4" height="14" rx="7" fill="#d97706"/>
<text x="590" y="237" text-anchor="end" font-size="9" fill="#94a3b8" opacity="0.6">slickfast.com</text>
</svg>
