<svg xmlns="http://www.w3.org/2000/svg" viewBox="0 0 600 366" width="600" height="366" font-family="Inter, system-ui, -apple-system, sans-serif">
<rect x="0" y="0" width="600" height="366" fill="#ffffff"/>
<text x="300" y="33" text-anchor="middle" font-size="18" font-weight="700" fill="#0f172a">Revenue by segment</text>
<rect x="24" y="54" width="26" height="26" rx="4" fill="#2563eb"/>
<rect x="54" y="54" width="26" height="26" rx="4" fill="#2563eb"/>
<rect x="84" y="54" width="26" height="26" rx="4" fill="#2563eb"/>
<rect x="114" y="54" width="26" height="26" rx="4" fill="#2563eb"/>
<rect x="144" y="54" width="26" height="26" rx="4" fill="#2563eb"/>
<rect x="174" y="54" width="26" height="26" rx="4" fill="#2563eb"/>
<rect x="204" y="54" width="26" height="26" rx="4" fill="#2563eb"/>
<rect x="234" y="54" width="26" height="26" rx="4" fill="#2563eb"/>
<rect x="264" y="54" width="26" height="26" rx="4" fill="#2563eb"/>
<rect x="294" y="54" width="26" height="26" rx="4" fill="#2563eb"/>
<rect x="24" y="84" width="26" height="26" rx="4" fill="#2563eb"/>
<rect x="54" y="84" width="26" height="26" rx="4" fill="#2563eb"/>
<rect x="84" y="84" width="26" height="26" rx="4" fill="#2563eb"/>
<rect x="114" y="84" width="26" height="26" rx="4" fill="#2563eb"/>
<rect x="144" y="84" width="26" height="26" rx="4" fill="#2563eb"/>
<rect x="174" y="84" width="26" height="26" rx="4" fill="#2563eb"/>
<rect x="204" y="84" width="26" height="26" rx="4" fill="#2563eb"/>
<rect x="234" y="84" width="26" height="26" rx="4" fill="#2563eb"/>
<rect x="264" y="84" width="26" height="26" rx="4" fill="#2563eb"/>
<rect x="294" y="84" width="26" height="26" rx="4" fill="#2563eb"/>
<rect x="24" y="114" width="26" height="26" rx="4" fill="#2563eb"/>
<rect x="54" y="114" width="26" height="26" rx="4" fill="#2563eb"/>
<rect x="84" y="114" width="26" height="26" rx="4" fill="#2563eb"/>
<rect x="114" y="114" width="26" height="26" rx="4" fill="#2563eb"/>
<rect x="144" y="114" width="26" height="26" rx="4" fill="#2563eb"/>
<rect x="174" y="114" width="26" height="26" rx="4" fill="#2563eb"/>
<rect x="204" y="114" width="26" height="26" rx="4" fill="#2563eb"/>
<rect x="234" y="114" width="26" height="26" rx="4" fill="#2563eb"/>
<rect x="264" y="114" width="26" height="26" rx="4" fill="#2563eb"/>
<rect x="294" y="114" width="26" height="26" rx="4" fill="#2563eb"/>
<rect x="24" y="144" width="26" height="26" rx="4" fill="#2563eb"/>
<rect x="54" y="144" width="26" height="26" rx="4" fill="#2563eb"/>
<rect x="84" y="144" width="26" height="26" rx="4" fill="#2563eb"/>
<rect x="114" y="144" width="26" height="26" rx="4" fill="#2563eb"/>
<rect x="144" y="144" width="26" height="26" rx="4" fill="#2563eb"/>
<rect x="174" y="144" width="26" height="26" rx="4" fill="#2563eb"/>
<rect x="204" y="144" width="26" height="26" rx="4" fill="#2563eb"/>
<rect x="234" y="144" width="26" height="26" rx="4" fill="#2563eb"/>
<rect x="264" y="144" width="26" height="26" rx="4" fill="#2563eb"/>
<rect x="294" y="144" width="26" height="26" rx="4" fill="#2563eb"/>
<rect x="24" y="174" width="26" height="26" rx="4" fill="#2563eb"/>
<rect x="54" y="174" width="26" height="26" rx="4" fill="#2563eb"/>
<rect x="84" y="174" width="26" height="26" rx="4" fill="#2563eb"/>
<rect x="114" y="174" width="26" height="26" rx="4" fill="#2563eb"/>
<rect x="144" y="174" width="26" height="26" rx="4" fill="#2563eb"/>
<rect x="174" y="174" width="26" height="26" rx="4" fill="#7c3aed"/>
<rect x="204" y="174" width="26" height="26" rx="4" fill="#7c3aed"/>
<rect x="234" y="174" width="26" height="26" rx="4" fill="#7c3aed"/>
<rect x="264" y="174" width="26" height="26" rx="4" fill="#7c3aed"/>
<rect x="294" y="174" width="26" height="26" rx="4" fill="#7c3aed"/>
<rect x="24" y="204" width="26" height="26" rx="4" fill="#7c3aed"/>
<rect x="54" y="204" width="26" height="26" rx="4" fill="#7c3aed"/>
<rect x="84" y="204" width="26" height="26" rx="4" fill="#7c3aed"/>
<rect x="114" y="204" width="26" height="26" rx="4" fill="#7c3aed"/>
<rect x="144" y="204" width="26" height="26" rx="4" fill="#7c3aed"/>
<rect x="174" y="204" width="26" height="26" rx="4" fill="#7c3aed"/>
<rect x="204" y="204" width="26" height="26" rx="4" fill="#7c3aed"/>
<rect x="234" y="204" width="26" height="26" rx="4" fill="#7c3aed"/>
<rect x="264" y="204" width="26" height="26" rx="4" fill="#7c3aed"/>
<rect x="294" y="204" width="26" height="26" rx="4" fill="#7c3aed"/>
<rect x="24" y="234" width="26" height="26" rx="4" fill="#7c3aed"/>
<rect x="54" y="234" width="26" height="26" rx="4" fill="#7c3aed"/>
<rect x="84" y="234" width="26" height="26" rx="4" fill="#7c3aed"/>
<rect x="114" y="234" width="26" height="26" rx="4" fill="#7c3aed"/>
<rect x="144" y="234" width="26" height="26" rx="4" fill="#7c3aed"/>
<rect x="174" y="234" width="26" height="26" rx="4" fill="#7c3aed"/>
<rect x="204" y="234" width="26" height="26" rx="4" fill="#7c3aed"/>
<rect x="234" y="234" width="26" height="26" rx="4" fill="#7c3aed"/>
<rect x="264" y="234" width="26" height="26" rx="4" fill="#7c3aed"/>
<rect x="294" y="234" width="26" height="26" rx="4" fill="#7c3aed"/>
<rect x="24" y="264" width="26" height="26" rx="4" fill="#7c3aed"/>
<rect x="54" y="264" width="26" height="26" rx="4" fill="#7c3aed"/>
<rect x="84" y="264" width="26" height="26" rx="4" fill="#7c3aed"/>
<rect x="114" y="264" width="26" height="26" rx="4" fill="#7c3aed"/>
<rect x="144" y="264" width="26" height="26" rx="4" fill="#7c3aed"/>
<rect x="174" y="264" width="26" height="26" rx="4" fill="#059669"/>
<rect x="204" y="264" width="26" height="26" rx="4" fill="#059669"/>
<rect x="234" y="264" width="26" height="26" rx="4" fill="#059669"/>
<rect x="264" y="264" width="26" height="26" rx="4" fill="#059669"/>
<rect x="294" y="264" width="26" height="26" rx="4" fill="#059669"/>
<rect x="24" y="294" width="26" height="26" rx="4" fill="#059669"/>
<rect x="54" y="294" width="26" height="26" rx="4" fill="#059669"/>
<rect x="84" y="294" width="26" height="26" rx="4" fill="#059669"/>
<rect x="114" y="294" width="26" height="26" rx="4" fill="#059669"/>
<rect x="144" y="294" width="26" height="26" rx="4" fill="#059669"/>
<rect x="174" y="294" width="26" height="26" rx="4" fill="#059669"/>
<rect x="204" y="294" width="26" height="26" rx="4" fill="#059669"/>
<rect x="234" y="294" width="26" height="26" rx="4" fill="#059669"/>
<rect x="264" y="294" width="26" height="26" rx="4" fill="#059669"/>
<rect x="294" y="294" width="26" height="26" rx="4" fill="#059669"/>
<rect x="24" y="324" width="26" height="26" rx="4" fill="#e2e8f0"/>
<rect x="54" y="324" width="26" height="26" rx="4" fill="#e2e8f0"/>
<rect x="84" y="324" width="26" height="26" rx="4" fill="#e2e8f0"/>
<rect x="114" y="324" width="26" height="26" rx="4" fill="#e2e8f0"/>
<rect x="144" y="324" width="26" height="26" rx="4" fill="#e2e8f0"/>
<rect x="174" y="324" width="26" height="26" rx="4" fill="#e2e8f0"/>
<rect x="204" y="324" width="26" height="26" rx="4" fill="#e2e8f0"/>
<rect x="234" y="324" width="26" height="26" rx="4" fill="#e2e8f0"/>
<rect x="264" y="324" width="26" height="26" rx="4" fill="#e2e8f0"/>
<rect x="294" y="324" width="26" height="26" rx="4" fill="#e2e8f0"/>
<rect x="348" y="60" width="13" height="13" rx="3" fill="#2563eb"/>
<text x="368" y="71" font-size="13" fill="#475569">Enterprise  45</text>
<rect x="348" y="84" width="13" height="13" rx="3" fill="#7c3aed"/>
<text x="368" y="95" font-size="13" fill="#475569">SMB  30</text>
<rect x="348" y="108" width="13" height="13" rx="3" fill="#059669"/>
<text x="368" y="119" font-size="13" fill="#475569">Other  15</text>
<text x="590" y="357" text-anchor="end" font-size="9" fill="#94a3b8" opacity="0.6">slickfast.com</text>
</svg>
