<svg xmlns="http://www.w3.org/2000/svg" viewBox="0 0 800 450" width="800" height="450" font-family="Inter, system-ui, -apple-system, sans-serif">
<rect x="0" y="0" width="800" height="450" fill="#ffffff"/>
<line x1="112.66" y1="54" x2="112.66" y2="386" stroke="#e2e8f0" stroke-width="1"/>
<text x="112.66" y="404" text-anchor="middle" font-size="11" fill="#64748b">0</text>
<line x1="277.5" y1="54" x2="277.5" y2="386" stroke="#e2e8f0" stroke-width="1"/>
<text x="277.5" y="404" text-anchor="middle" font-size="11" fill="#64748b">50</text>
<line x1="442.33" y1="54" x2="442.33" y2="386" stroke="#e2e8f0" stroke-width="1"/>
<text x="442.33" y="404" text-anchor="middle" font-size="11" fill="#64748b">100</text>
<line x1="607.17" y1="54" x2="607.17" y2="386" stroke="#e2e8f0" stroke-width="1"/>
<text x="607.17" y="404" text-anchor="middle" font-size="11" fill="#64748b">150</text>
<line x1="772" y1="54" x2="772" y2="386" stroke="#e2e8f0" stroke-width="1"/>
<text x="772" y="404" text-anchor="middle" font-size="11" fill="#64748b">200</text>
<rect x="112.66" y="69.77" width="395.6" height="51.46" fill="#2563eb"/>
<text x="310.46" y="92.5" text-anchor="middle" font-size="10" font-weight="700" fill="#ffffff">Salaries</text>
<text x="310.46" y="108.5" text-anchor="middle" font-size="12" font-weight="600" fill="#ffffff">120</text>
<rect x="508.26" y="69.77" width="131.87" height="51.46" fill="#7c3aed"/>
<text x="574.2" y="92.5" text-anchor="middle" font-size="10" font-weight="700" fill="#ffffff">Tools</text>
<text x="574.2" y="108.5" text-anchor="middle" font-size="12" font-weight="600" fill="#ffffff">40</text>
<path d="M640.13,69.77 L684.58,69.77 Q689.58,69.77 689.58,74.77 L689.58,116.23 Q689.58,121.23 684.58,121.23 L640.13,121.23 Z" fill="#059669"/>
<text x="664.86" y="99.5" text-anchor="middle" font-size="12" font-weight="600" fill="#1a1a1a">15</text>
<text x="102.66" y="99.5" text-anchor="end" font-size="12" fill="#475569">Engineering</text>
<rect x="112.66" y="152.77" width="296.7" height="51.46" fill="#2563eb"/>
<text x="261.01" y="175.5" text-anchor="middle" font-size="10" font-weight="700" fill="#ffffff">Salaries</text>
<text x="261.01" y="191.5" text-anchor="middle" font-size="12" font-weight="600" fill="#ffffff">90</text>
<rect x="409.36" y="152.77" width="82.42" height="51.46" fill="#7c3aed"/>
<text x="450.57" y="175.5" text-anchor="middle" font-size="10" font-weight="700" fill="#ffffff">Tools</text>
<text x="450.57" y="191.5" text-anchor="middle" font-size="12" font-weight="600" fill="#ffffff">25</text>
<path d="M491.78,152.77 L635.13,152.77 Q640.13,152.77 640.13,157.77 L640.13,199.23 Q640.13,204.23 635.13,204.23 L491.78,204.23 Z" fill="#059669"/>
<text x="565.96" y="175.5" text-anchor="middle" font-size="10" font-weight="700" fill="#1a1a1a">Travel</text>
<text x="565.96" y="191.5" text-anchor="middle" font-size="12" font-weight="600" fill="#1a1a1a">45</text>
<text x="102.66" y="182.5" text-anchor="end" font-size="12" fill="#475569">Sales</text>
<rect x="112.66" y="235.77" width="197.8" height="51.46" fill="#2563eb"/>
<text x="211.56" y="258.5" text-anchor="middle" font-size="10" font-weight="700" fill="#ffffff">Salaries</text>
<text x="211.56" y="274.5" text-anchor="middle" font-size="12" font-weight="600" fill="#ffffff">60</text>
<rect x="310.46" y="235.77" width="115.38" height="51.46" fill="#7c3aed"/>
<text x="368.15" y="258.5" text-anchor="middle" font-size="10" font-weight="700" fill="#ffffff">Tools</text>
<text x="368.15" y="274.5" text-anchor="middle" font-size="12" font-weight="600" fill="#ffffff">35</text>
<path d="M425.85,235.77 L519.75,235.77 Q524.75,235.77 524.75,240.77 L524.75,282.23 Q524.75,287.23 519.75,287.23 L425.85,287.23 Z" fill="#059669"/>
<text x="475.3" y="258.5" text-anchor="middle" font-size="10" font-weight="700" fill="#1a1a1a">Travel</text>
<text x="475.3" y="274.5" text-anchor="middle" font-size="12" font-weight="600" fill="#1a1a1a">30</text>
<text x="102.66" y="265.5" text-anchor="end" font-size="12" fill="#475569">Marketing</text>
<rect x="112.66" y="318.77" width="230.77" height="51.46" fill="#2563eb"/>
<text x="228.04" y="341.5" text-anchor="middle" font-size="10" font-weight="700" fill="#ffffff">Salaries</text>
<text x="228.04" y="357.5" text-anchor="middle" font-size="12" font-weight="600" fill="#ffffff">70</text>
<rect x="343.43" y="318.77" width="65.93" height="51.46" fill="#7c3aed"/>
<text x="376.4" y="341.5" text-anchor="middle" font-size="10" font-weight="700" fill="#ffffff">Tools</text>
<text x="376.4" y="357.5" text-anchor="middle" font-size="12" font-weight="600" fill="#ffffff">20</text>
<path d="M409.36,318.77 L437.33,318.77 Q442.33,318.77 442.33,323.77 L442.33,365.23 Q442.33,370.23 437.33,370.23 L409.36,370.23 Z" fill="#059669"/>
<text x="425.85" y="348.5" text-anchor="middle" font-size="12" font-weight="600" fill="#1a1a1a">10</text>
<text x="102.66" y="348.5" text-anchor="end" font-size="12" fill="#475569">Support</text>
<rect x="279.84" y="425" width="11" height="11" rx="2.5" fill="#2563eb"/>
<text x="296.84" y="434" font-size="12" fill="#475569">Salaries</text>
<rect x="372.08" y="425" width="11" height="11" rx="2.5" fill="#7c3aed"/>
<text x="389.08" y="434" font-size="12" fill="#475569">Tools</text>
<rect x="442.48" y="425" width="11" height="11" rx="2.5" fill="#059669"/>
<text x="459.48" y="434" font-size="12" fill="#475569">Travel</text>
<text x="400" y="33" text-anchor="middle" font-size="18" font-weight="700" fill="#0f172a">Budget Allocation by Team</text>
<text x="792" y="442" text-anchor="end" font-size="10" fill="#94a3b8" opacity="0.7">slickfast.com</text>
</svg>
