<svg xmlns="http://www.w3.org/2000/svg" viewBox="0 0 640 360" width="640" height="360" style="max-width:100%;height:auto" font-family="Inter, system-ui, -apple-system, sans-serif">
<rect x="0" y="0" width="640" height="360" fill="#ffffff"/>
<text x="320" y="33" text-anchor="middle" font-size="18" font-weight="700" fill="#0f172a">Revenue bridge</text>
<rect x="24" y="141.33" width="107.2" height="174.67" rx="3" fill="#059669"/>
<line x1="131.2" y1="141.33" x2="145.2" y2="141.33" stroke="#94a3b8" stroke-dasharray="3 3"/>
<text x="77.6" y="135.33" text-anchor="middle" font-size="12" font-weight="700" fill="#059669">+120</text>
<text x="77.6" y="334" text-anchor="middle" font-size="11" fill="#475569">New</text>
<rect x="145.2" y="54" width="107.2" height="87.33" rx="3" fill="#059669"/>
<line x1="252.4" y1="54" x2="266.4" y2="54" stroke="#94a3b8" stroke-dasharray="3 3"/>
<text x="198.8" y="48" text-anchor="middle" font-size="12" font-weight="700" fill="#059669">+60</text>
<text x="198.8" y="334" text-anchor="middle" font-size="11" fill="#475569">Expansion</text>
<rect x="266.4" y="54" width="107.2" height="58.22" rx="3" fill="#dc2626"/>
<line x1="373.6" y1="112.22" x2="387.6" y2="112.22" stroke="#94a3b8" stroke-dasharray="3 3"/>
<text x="320" y="126.22" text-anchor="middle" font-size="12" font-weight="700" fill="#dc2626">-40</text>
<text x="320" y="334" text-anchor="middle" font-size="11" fill="#475569">Churn</text>
<rect x="387.6" y="112.22" width="107.2" height="21.83" rx="3" fill="#dc2626"/>
<line x1="494.8" y1="134.06" x2="508.8" y2="134.06" stroke="#94a3b8" stroke-dasharray="3 3"/>
<text x="441.2" y="148.06" text-anchor="middle" font-size="12" font-weight="700" fill="#dc2626">-15</text>
<text x="441.2" y="334" text-anchor="middle" font-size="11" fill="#475569">Contraction</text>
<rect x="508.8" y="134.06" width="107.2" height="181.94" rx="3" fill="#1c2230"/>
<text x="562.4" y="128.06" text-anchor="middle" font-size="12" font-weight="700" fill="#1c2230">125</text>
<text x="562.4" y="334" text-anchor="middle" font-size="11" fill="#475569">Total</text>
<text x="630" y="351" text-anchor="end" font-size="9" fill="#94a3b8" opacity="0.6">slickfast.com</text>
</svg>
