<svg xmlns="http://www.w3.org/2000/svg" viewBox="0 0 920 380" width="920" height="380" font-family="Inter, system-ui, -apple-system, sans-serif">
<rect x="0" y="0" width="920" height="380" fill="#ffffff"/>
<line x1="253.2" y1="70" x2="469" y2="120.47" stroke="#6B2D5C" stroke-width="1.73" stroke-opacity="0.4"/>
<line x1="253.2" y1="358" x2="469" y2="307.53" stroke="#6B2D5C" stroke-width="1.73" stroke-opacity="0.4"/>
<line x1="533.8" y1="106" x2="703.7" y2="143.85" stroke="#F2913D" stroke-width="1.3" stroke-opacity="0.4"/>
<line x1="533.8" y1="322" x2="703.7" y2="284.15" stroke="#F2913D" stroke-width="1.3" stroke-opacity="0.4"/>
<path d="M208.7,77.05 A144,144 0 1 1 208.7,350.95 L227.39,293.43 A83.52,83.52 0 1 0 227.39,134.57 Z" fill="#6B2D5C" stroke="#ffffff" stroke-width="2.88"/>
<text x="366.96" y="218" text-anchor="middle" font-size="13" font-weight="700" fill="#ffffff">60%</text>
<path d="M194.3,350.95 A144,144 0 0 1 122.3,129.36 L171.23,164.91 A83.52,83.52 0 0 0 212.99,293.43 Z" fill="#C8324B"/>
<text x="130.61" y="253.15" text-anchor="middle" font-size="13" font-weight="700" fill="#ffffff">30%</text>
<path d="M122.3,129.36 A144,144 0 0 1 194.3,77.05 L212.99,134.57 A83.52,83.52 0 0 0 171.23,164.91 Z" fill="#F2785C"/>
<text x="171.93" y="125.97" text-anchor="middle" font-size="13" font-weight="700" fill="#1a1a1a">10%</text>
<text x="238.8" y="53" text-anchor="middle" font-size="13" font-weight="700" fill="#475569">Revenue</text>
<path d="M505.85,109.68 A108,108 0 1 1 505.85,318.32 L517.59,274.51 A62.64,62.64 0 1 0 517.59,153.49 Z" fill="#F2913D" stroke="#ffffff" stroke-width="2.16"/>
<text x="619.12" y="218" text-anchor="middle" font-size="11.26" font-weight="700" fill="#1a1a1a">58%</text>
<path d="M495.05,318.32 A108,108 0 0 1 418.68,186.05 L462.49,197.79 A62.64,62.64 0 0 0 506.79,274.51 Z" fill="#F6B73C"/>
<text x="449.11" y="260.66" text-anchor="middle" font-size="11.26" font-weight="700" fill="#1a1a1a">25%</text>
<path d="M418.68,186.05 A108,108 0 0 1 495.05,109.68 L506.79,153.49 A62.64,62.64 0 0 0 462.49,197.79 Z" fill="#FCD848"/>
<text x="462.67" y="157.67" text-anchor="middle" font-size="11.26" font-weight="700" fill="#1a1a1a">17%</text>
<text x="523" y="53" text-anchor="middle" font-size="13" font-weight="700" fill="#475569">Enterprise</text>
<path d="M744.2,133 A81,81 0 1 1 736.94,294.67 L739.99,260.79 A46.98,46.98 0 1 0 744.2,167.02 Z" fill="#A3C940"/>
<text x="808.13" y="220.87" text-anchor="middle" font-size="9.75" font-weight="700" fill="#1a1a1a">51%</text>
<path d="M736.94,294.67 A81,81 0 0 1 680.87,163.5 L707.47,184.71 A46.98,46.98 0 0 0 739.99,260.79 Z" fill="#6FCF97"/>
<text x="685.36" y="243.15" text-anchor="middle" font-size="9.75" font-weight="700" fill="#1a1a1a">34%</text>
<path d="M680.87,163.5 A81,81 0 0 1 744.2,133 L744.2,167.02 A46.98,46.98 0 0 0 707.47,184.71 Z" fill="#2FA98C"/>
<text x="716.44" y="160.35" text-anchor="middle" font-size="9.75" font-weight="700" fill="#1a1a1a">14%</text>
<text x="744.2" y="53" text-anchor="middle" font-size="13" font-weight="700" fill="#475569">US</text>
<text x="460" y="26" text-anchor="middle" font-size="18" font-weight="700" fill="#0f172a">Analogous Shift</text>
<text x="912" y="372" text-anchor="end" font-size="10" fill="#94a3b8" opacity="0.7">slickfast.com</text>
</svg>