<svg xmlns="http://www.w3.org/2000/svg" viewBox="0 0 640 440" width="640" height="440" style="max-width:100%;height:auto" font-family="Inter, system-ui, -apple-system, sans-serif">
<rect x="0" y="0" width="640" height="440" fill="#ffffff"/>
<text x="320" y="33" text-anchor="middle" font-size="18" font-weight="700" fill="#0f172a">SlickFast SWOT</text>
<rect x="22" y="52" width="291" height="176" rx="10" fill="#2e9e6b" fill-opacity="0.12"/>
<text x="38" y="78" font-size="14" font-weight="700" fill="#2e9e6b">Strengths</text>
<circle cx="42" cy="98" r="2.5" fill="#2e9e6b"/>
<text x="52" y="102" font-size="13" fill="#5b6270">Deterministic engine</text>
<circle cx="42" cy="120" r="2.5" fill="#2e9e6b"/>
<text x="52" y="124" font-size="13" fill="#5b6270">$0 local MCP</text>
<circle cx="42" cy="142" r="2.5" fill="#2e9e6b"/>
<text x="52" y="146" font-size="13" fill="#5b6270">38+ types</text>
<rect x="327" y="52" width="291" height="176" rx="10" fill="#d6543a" fill-opacity="0.12"/>
<text x="343" y="78" font-size="14" font-weight="700" fill="#d6543a">Weaknesses</text>
<circle cx="347" cy="98" r="2.5" fill="#d6543a"/>
<text x="357" y="102" font-size="13" fill="#5b6270">New brand</text>
<circle cx="347" cy="120" r="2.5" fill="#d6543a"/>
<text x="357" y="124" font-size="13" fill="#5b6270">Docs young</text>
<rect x="22" y="242" width="291" height="176" rx="10" fill="#2563eb" fill-opacity="0.12"/>
<text x="38" y="268" font-size="14" font-weight="700" fill="#2563eb">Opportunities</text>
<circle cx="42" cy="288" r="2.5" fill="#2563eb"/>
<text x="52" y="292" font-size="13" fill="#5b6270">AI chart demand</text>
<circle cx="42" cy="310" r="2.5" fill="#2563eb"/>
<text x="52" y="314" font-size="13" fill="#5b6270">RapidAPI funnel</text>
<rect x="327" y="242" width="291" height="176" rx="10" fill="#C17817" fill-opacity="0.12"/>
<text x="343" y="268" font-size="14" font-weight="700" fill="#C17817">Threats</text>
<circle cx="347" cy="288" r="2.5" fill="#C17817"/>
<text x="357" y="292" font-size="13" fill="#5b6270">Incumbent libraries</text>
<text x="630" y="431" text-anchor="end" font-size="9" fill="#94a3b8" opacity="0.6">slickfast.com</text>
</svg>
