<svg xmlns="http://www.w3.org/2000/svg" viewBox="0 0 800 450" width="800" height="450" font-family="Inter, system-ui, -apple-system, sans-serif">
<rect x="0" y="0" width="800" height="450" fill="#0f172a"/>
<line x1="56" y1="404" x2="776" y2="404" stroke="#1e293b" stroke-width="1"/>
<text x="48" y="408" text-anchor="end" font-size="11" font-weight="700" fill="#fbbf24">0</text>
<line x1="56" y1="287.33" x2="776" y2="287.33" stroke="#1e293b" stroke-width="1"/>
<text x="48" y="291.33" text-anchor="end" font-size="11" font-weight="700" fill="#fbbf24">200</text>
<line x1="56" y1="170.67" x2="776" y2="170.67" stroke="#1e293b" stroke-width="1"/>
<text x="48" y="174.67" text-anchor="end" font-size="11" font-weight="700" fill="#fbbf24">400</text>
<line x1="56" y1="54" x2="776" y2="54" stroke="#1e293b" stroke-width="1"/>
<text x="48" y="58" text-anchor="end" font-size="11" font-weight="700" fill="#fbbf24">600</text>
<path d="M98,404 L98,222.33 Q98,217.33 103,217.33 L189,217.33 Q194,217.33 194,222.33 L194,404 Z" fill="#2563eb"/>
<text x="146" y="210.33" text-anchor="middle" font-size="12" font-weight="700" fill="#fbbf24">320</text>
<text x="146" y="422" text-anchor="middle" font-size="12" font-weight="700" fill="#fbbf24">Q1</text>
<path d="M278,404 L278,169.83 Q278,164.83 283,164.83 L369,164.83 Q374,164.83 374,169.83 L374,404 Z" fill="#7c3aed"/>
<text x="326" y="157.83" text-anchor="middle" font-size="12" font-weight="700" fill="#fbbf24">410</text>
<text x="326" y="422" text-anchor="middle" font-size="12" font-weight="700" fill="#fbbf24">Q2</text>
<path d="M458,404 L458,187.33 Q458,182.33 463,182.33 L549,182.33 Q554,182.33 554,187.33 L554,404 Z" fill="#059669"/>
<text x="506" y="175.33" text-anchor="middle" font-size="12" font-weight="700" fill="#fbbf24">380</text>
<text x="506" y="422" text-anchor="middle" font-size="12" font-weight="700" fill="#fbbf24">Q3</text>
<path d="M638,404 L638,105.67 Q638,100.67 643,100.67 L729,100.67 Q734,100.67 734,105.67 L734,404 Z" fill="#d97706"/>
<text x="686" y="93.67" text-anchor="middle" font-size="12" font-weight="700" fill="#fbbf24">520</text>
<text x="686" y="422" text-anchor="middle" font-size="12" font-weight="700" fill="#fbbf24">Q4</text>
<text x="776" y="50" text-anchor="end" font-size="12" font-weight="700" fill="#fbbf24">Total: 1,630</text>
<text x="400" y="33" text-anchor="middle" font-size="18" font-weight="800" fill="#fbbf24">Text Levers — gold labels, bold</text>
<text x="792" y="442" text-anchor="end" font-size="10" fill="#475569" opacity="0.7">slickfast.com</text>
</svg>
