<svg xmlns="http://www.w3.org/2000/svg" viewBox="0 0 800 450" width="800" height="450" font-family="Inter, system-ui, -apple-system, sans-serif">
<rect x="0" y="0" width="800" height="450" fill="#ffffff"/>
<line x1="56" y1="404" x2="776" y2="404" stroke="#e2e8f0" stroke-width="1"/>
<text x="48" y="408" text-anchor="end" font-size="11" fill="#64748b">0</text>
<line x1="56" y1="316.5" x2="776" y2="316.5" stroke="#e2e8f0" stroke-width="1"/>
<text x="48" y="320.5" text-anchor="end" font-size="11" fill="#64748b">20</text>
<line x1="56" y1="229" x2="776" y2="229" stroke="#e2e8f0" stroke-width="1"/>
<text x="48" y="233" text-anchor="end" font-size="11" fill="#64748b">40</text>
<line x1="56" y1="141.5" x2="776" y2="141.5" stroke="#e2e8f0" stroke-width="1"/>
<text x="48" y="145.5" text-anchor="end" font-size="11" fill="#64748b">60</text>
<line x1="56" y1="54" x2="776" y2="54" stroke="#e2e8f0" stroke-width="1"/>
<text x="48" y="58" text-anchor="end" font-size="11" fill="#64748b">80</text>
<line x1="128" y1="404" x2="128" y2="62.75" stroke="#f43f5e" stroke-width="3" stroke-linecap="round"/>
<circle cx="128" cy="62.75" r="7" fill="#f43f5e"/>
<text x="128" y="48.75" text-anchor="middle" font-size="12" font-weight="600" fill="#334155">78 %</text>
<text x="128" y="422" text-anchor="middle" font-size="12" fill="#475569">Search</text>
<line x1="272" y1="404" x2="272" y2="124" stroke="#f97316" stroke-width="3" stroke-linecap="round"/>
<circle cx="272" cy="124" r="7" fill="#f97316"/>
<text x="272" y="110" text-anchor="middle" font-size="12" font-weight="600" fill="#334155">64 %</text>
<text x="272" y="422" text-anchor="middle" font-size="12" fill="#475569">Filters</text>
<line x1="416" y1="404" x2="416" y2="176.5" stroke="#eab308" stroke-width="3" stroke-linecap="round"/>
<circle cx="416" cy="176.5" r="7" fill="#eab308"/>
<text x="416" y="162.5" text-anchor="middle" font-size="12" font-weight="600" fill="#334155">52 %</text>
<text x="416" y="422" text-anchor="middle" font-size="12" fill="#475569">Export</text>
<line x1="560" y1="404" x2="560" y2="224.63" stroke="#22c55e" stroke-width="3" stroke-linecap="round"/>
<circle cx="560" cy="224.63" r="7" fill="#22c55e"/>
<text x="560" y="210.63" text-anchor="middle" font-size="12" font-weight="600" fill="#334155">41 %</text>
<text x="560" y="422" text-anchor="middle" font-size="12" fill="#475569">Sharing</text>
<line x1="704" y1="404" x2="704" y2="277.13" stroke="#06b6d4" stroke-width="3" stroke-linecap="round"/>
<circle cx="704" cy="277.13" r="7" fill="#06b6d4"/>
<text x="704" y="263.13" text-anchor="middle" font-size="12" font-weight="600" fill="#334155">29 %</text>
<text x="704" y="422" text-anchor="middle" font-size="12" fill="#475569">API</text>
<text x="400" y="33" text-anchor="middle" font-size="18" font-weight="700" fill="#0f172a">Feature Adoption Rate</text>
<text x="792" y="442" text-anchor="end" font-size="10" fill="#94a3b8" opacity="0.7">slickfast.com</text>
</svg>
