<svg xmlns="http://www.w3.org/2000/svg" viewBox="0 0 560 224" width="560" height="224" style="max-width:100%;height:auto" font-family="Inter, system-ui, -apple-system, sans-serif">
<rect x="0" y="0" width="560" height="224" fill="#ffffff"/>
<text x="16" y="31" font-size="18" font-weight="700" fill="#0f172a">Chart tiers</text>
<rect x="16" y="50" width="56" height="48" rx="6" fill="#2563eb"/>
<text x="44" y="80" text-anchor="middle" font-size="17" font-weight="800" fill="#ffffff">S</text>
<rect x="82" y="61" width="41" height="26" rx="6" fill="#e2e8f0"/>
<text x="102.5" y="79" text-anchor="middle" font-size="13" fill="#334155">Bar</text>
<rect x="131" y="61" width="49" height="26" rx="6" fill="#e2e8f0"/>
<text x="155.5" y="79" text-anchor="middle" font-size="13" fill="#334155">Line</text>
<rect x="188" y="61" width="41" height="26" rx="6" fill="#e2e8f0"/>
<text x="208.5" y="79" text-anchor="middle" font-size="13" fill="#334155">KPI</text>
<rect x="16" y="104" width="56" height="48" rx="6" fill="#7c3aed"/>
<text x="44" y="134" text-anchor="middle" font-size="17" font-weight="800" fill="#ffffff">A</text>
<rect x="82" y="115" width="41" height="26" rx="6" fill="#e2e8f0"/>
<text x="102.5" y="133" text-anchor="middle" font-size="13" fill="#334155">Pie</text>
<rect x="131" y="115" width="49" height="26" rx="6" fill="#e2e8f0"/>
<text x="155.5" y="133" text-anchor="middle" font-size="13" fill="#334155">Area</text>
<rect x="188" y="115" width="65" height="26" rx="6" fill="#e2e8f0"/>
<text x="220.5" y="133" text-anchor="middle" font-size="13" fill="#334155">Funnel</text>
<rect x="16" y="158" width="56" height="48" rx="6" fill="#059669"/>
<text x="44" y="188" text-anchor="middle" font-size="17" font-weight="800" fill="#1a1a1a">B</text>
<rect x="82" y="169" width="57" height="26" rx="6" fill="#e2e8f0"/>
<text x="110.5" y="187" text-anchor="middle" font-size="13" fill="#334155">Radar</text>
<text x="550" y="215" text-anchor="end" font-size="9" fill="#94a3b8" opacity="0.6">slickfast.com</text>
</svg>
