<svg xmlns="http://www.w3.org/2000/svg" viewBox="0 0 820 182" width="820" height="182" style="max-width:100%;height:auto" font-family="Inter, system-ui, -apple-system, sans-serif">
<rect x="0" y="0" width="820" height="182" fill="#ffffff"/>
<text x="24" y="33" font-size="18" font-weight="700" fill="#0f172a">Commits in 2025</text>
<text x="54" y="62" font-size="10" fill="#64748b">Jan</text>
<text x="110" y="62" font-size="10" fill="#64748b">Feb</text>
<text x="166" y="62" font-size="10" fill="#64748b">Mar</text>
<text x="236" y="62" font-size="10" fill="#64748b">Apr</text>
<text x="292" y="62" font-size="10" fill="#64748b">May</text>
<text x="362" y="62" font-size="10" fill="#64748b">Jun</text>
<text x="418" y="62" font-size="10" fill="#64748b">Jul</text>
<text x="474" y="62" font-size="10" fill="#64748b">Aug</text>
<text x="544" y="62" font-size="10" fill="#64748b">Sep</text>
<text x="600" y="62" font-size="10" fill="#64748b">Oct</text>
<text x="656" y="62" font-size="10" fill="#64748b">Nov</text>
<text x="726" y="62" font-size="10" fill="#64748b">Dec</text>
<text x="24" y="93" font-size="10" fill="#64748b">Mon</text>
<text x="24" y="121" font-size="10" fill="#64748b">Wed</text>
<text x="24" y="149" font-size="10" fill="#64748b">Fri</text>
<rect x="54" y="110" width="11" height="11" rx="2" fill="#ebedf0"/>
<rect x="54" y="124" width="11" height="11" rx="2" fill="#ebedf0"/>
<rect x="54" y="138" width="11" height="11" rx="2" fill="#ebedf0"/>
<rect x="54" y="152" width="11" height="11" rx="2" fill="#ebedf0"/>
<rect x="68" y="68" width="11" height="11" rx="2" fill="#ebedf0"/>
<rect x="68" y="82" width="11" height="11" rx="2" fill="#8faff5"/>
<rect x="68" y="96" width="11" height="11" rx="2" fill="#ebedf0"/>
<rect x="68" y="110" width="11" height="11" rx="2" fill="#ebedf0"/>
<rect x="68" y="124" width="11" height="11" rx="2" fill="#ebedf0"/>
<rect x="68" y="138" width="11" height="11" rx="2" fill="#ebedf0"/>
<rect x="68" y="152" width="11" height="11" rx="2" fill="#ebedf0"/>
<rect x="82" y="68" width="11" height="11" rx="2" fill="#ebedf0"/>
<rect x="82" y="82" width="11" height="11" rx="2" fill="#ebedf0"/>
<rect x="82" y="96" width="11" height="11" rx="2" fill="#ebedf0"/>
<rect x="82" y="110" width="11" height="11" rx="2" fill="#ebedf0"/>
<rect x="82" y="124" width="11" height="11" rx="2" fill="#ebedf0"/>
<rect x="82" y="138" width="11" height="11" rx="2" fill="#ebedf0"/>
<rect x="82" y="152" width="11" height="11" rx="2" fill="#ebedf0"/>
<rect x="96" y="68" width="11" height="11" rx="2" fill="#ebedf0"/>
<rect x="96" y="82" width="11" height="11" rx="2" fill="#ebedf0"/>
<rect x="96" y="96" width="11" height="11" rx="2" fill="#497dee"/>
<rect x="96" y="110" width="11" height="11" rx="2" fill="#ebedf0"/>
<rect x="96" y="124" width="11" height="11" rx="2" fill="#ebedf0"/>
<rect x="96" y="138" width="11" height="11" rx="2" fill="#ebedf0"/>
<rect x="96" y="152" width="11" height="11" rx="2" fill="#ebedf0"/>
<rect x="110" y="68" width="11" height="11" rx="2" fill="#ebedf0"/>
<rect x="110" y="82" width="11" height="11" rx="2" fill="#ebedf0"/>
<rect x="110" y="96" width="11" height="11" rx="2" fill="#ebedf0"/>
<rect x="110" y="110" width="11" height="11" rx="2" fill="#ebedf0"/>
<rect x="110" y="124" width="11" height="11" rx="2" fill="#ebedf0"/>
<rect x="110" y="138" width="11" height="11" rx="2" fill="#ebedf0"/>
<rect x="110" y="152" width="11" height="11" rx="2" fill="#ebedf0"/>
<rect x="124" y="68" width="11" height="11" rx="2" fill="#ebedf0"/>
<rect x="124" y="82" width="11" height="11" rx="2" fill="#1451d7"/>
<rect x="124" y="96" width="11" height="11" rx="2" fill="#ebedf0"/>
<rect x="124" y="110" width="11" height="11" rx="2" fill="#ebedf0"/>
<rect x="124" y="124" width="11" height="11" rx="2" fill="#ebedf0"/>
<rect x="124" y="138" width="11" height="11" rx="2" fill="#ebedf0"/>
<rect x="124" y="152" width="11" height="11" rx="2" fill="#ebedf0"/>
<rect x="138" y="68" width="11" height="11" rx="2" fill="#ebedf0"/>
<rect x="138" y="82" width="11" height="11" rx="2" fill="#ebedf0"/>
<rect x="138" y="96" width="11" height="11" rx="2" fill="#ebedf0"/>
<rect x="138" y="110" width="11" height="11" rx="2" fill="#ebedf0"/>
<rect x="138" y="124" width="11" height="11" rx="2" fill="#ebedf0"/>
<rect x="138" y="138" width="11" height="11" rx="2" fill="#ebedf0"/>
<rect x="138" y="152" width="11" height="11" rx="2" fill="#ebedf0"/>
<rect x="152" y="68" width="11" height="11" rx="2" fill="#ebedf0"/>
<rect x="152" y="82" width="11" height="11" rx="2" fill="#ebedf0"/>
<rect x="152" y="96" width="11" height="11" rx="2" fill="#789ef3"/>
<rect x="152" y="110" width="11" height="11" rx="2" fill="#ebedf0"/>
<rect x="152" y="124" width="11" height="11" rx="2" fill="#ebedf0"/>
<rect x="152" y="138" width="11" height="11" rx="2" fill="#ebedf0"/>
<rect x="152" y="152" width="11" height="11" rx="2" fill="#ebedf0"/>
<rect x="166" y="68" width="11" height="11" rx="2" fill="#ebedf0"/>
<rect x="166" y="82" width="11" height="11" rx="2" fill="#ebedf0"/>
<rect x="166" y="96" width="11" height="11" rx="2" fill="#ebedf0"/>
<rect x="166" y="110" width="11" height="11" rx="2" fill="#ebedf0"/>
<rect x="166" y="124" width="11" height="11" rx="2" fill="#ebedf0"/>
<rect x="166" y="138" width="11" height="11" rx="2" fill="#ebedf0"/>
<rect x="166" y="152" width="11" height="11" rx="2" fill="#ebedf0"/>
<rect x="180" y="68" width="11" height="11" rx="2" fill="#ebedf0"/>
<rect x="180" y="82" width="11" height="11" rx="2" fill="#ebedf0"/>
<rect x="180" y="96" width="11" height="11" rx="2" fill="#ebedf0"/>
<rect x="180" y="110" width="11" height="11" rx="2" fill="#ebedf0"/>
<rect x="180" y="124" width="11" height="11" rx="2" fill="#ebedf0"/>
<rect x="180" y="138" width="11" height="11" rx="2" fill="#ebedf0"/>
<rect x="180" y="152" width="11" height="11" rx="2" fill="#ebedf0"/>
<rect x="194" y="68" width="11" height="11" rx="2" fill="#ebedf0"/>
<rect x="194" y="82" width="11" height="11" rx="2" fill="#ebedf0"/>
<rect x="194" y="96" width="11" height="11" rx="2" fill="#316cec"/>
<rect x="194" y="110" width="11" height="11" rx="2" fill="#ebedf0"/>
<rect x="194" y="124" width="11" height="11" rx="2" fill="#ebedf0"/>
<rect x="194" y="138" width="11" height="11" rx="2" fill="#ebedf0"/>
<rect x="194" y="152" width="11" height="11" rx="2" fill="#ebedf0"/>
<rect x="208" y="68" width="11" height="11" rx="2" fill="#ebedf0"/>
<rect x="208" y="82" width="11" height="11" rx="2" fill="#ebedf0"/>
<rect x="208" y="96" width="11" height="11" rx="2" fill="#ebedf0"/>
<rect x="208" y="110" width="11" height="11" rx="2" fill="#ebedf0"/>
<rect x="208" y="124" width="11" height="11" rx="2" fill="#ebedf0"/>
<rect x="208" y="138" width="11" height="11" rx="2" fill="#ebedf0"/>
<rect x="208" y="152" width="11" height="11" rx="2" fill="#ebedf0"/>
<rect x="222" y="68" width="11" height="11" rx="2" fill="#ebedf0"/>
<rect x="222" y="82" width="11" height="11" rx="2" fill="#ebedf0"/>
<rect x="222" y="96" width="11" height="11" rx="2" fill="#ebedf0"/>
<rect x="222" y="110" width="11" height="11" rx="2" fill="#ebedf0"/>
<rect x="222" y="124" width="11" height="11" rx="2" fill="#ebedf0"/>
<rect x="222" y="138" width="11" height="11" rx="2" fill="#ebedf0"/>
<rect x="222" y="152" width="11" height="11" rx="2" fill="#ebedf0"/>
<rect x="236" y="68" width="11" height="11" rx="2" fill="#ebedf0"/>
<rect x="236" y="82" width="11" height="11" rx="2" fill="#ebedf0"/>
<rect x="236" y="96" width="11" height="11" rx="2" fill="#ebedf0"/>
<rect x="236" y="110" width="11" height="11" rx="2" fill="#1248c0"/>
<rect x="236" y="124" width="11" height="11" rx="2" fill="#ebedf0"/>
<rect x="236" y="138" width="11" height="11" rx="2" fill="#ebedf0"/>
<rect x="236" y="152" width="11" height="11" rx="2" fill="#ebedf0"/>
<rect x="250" y="68" width="11" height="11" rx="2" fill="#ebedf0"/>
<rect x="250" y="82" width="11" height="11" rx="2" fill="#ebedf0"/>
<rect x="250" y="96" width="11" height="11" rx="2" fill="#ebedf0"/>
<rect x="250" y="110" width="11" height="11" rx="2" fill="#ebedf0"/>
<rect x="250" y="124" width="11" height="11" rx="2" fill="#ebedf0"/>
<rect x="250" y="138" width="11" height="11" rx="2" fill="#ebedf0"/>
<rect x="250" y="152" width="11" height="11" rx="2" fill="#ebedf0"/>
<rect x="264" y="68" width="11" height="11" rx="2" fill="#ebedf0"/>
<rect x="264" y="82" width="11" height="11" rx="2" fill="#ebedf0"/>
<rect x="264" y="96" width="11" height="11" rx="2" fill="#ebedf0"/>
<rect x="264" y="110" width="11" height="11" rx="2" fill="#ebedf0"/>
<rect x="264" y="124" width="11" height="11" rx="2" fill="#ebedf0"/>
<rect x="264" y="138" width="11" height="11" rx="2" fill="#ebedf0"/>
<rect x="264" y="152" width="11" height="11" rx="2" fill="#ebedf0"/>
<rect x="278" y="68" width="11" height="11" rx="2" fill="#ebedf0"/>
<rect x="278" y="82" width="11" height="11" rx="2" fill="#ebedf0"/>
<rect x="278" y="96" width="11" height="11" rx="2" fill="#608df0"/>
<rect x="278" y="110" width="11" height="11" rx="2" fill="#ebedf0"/>
<rect x="278" y="124" width="11" height="11" rx="2" fill="#ebedf0"/>
<rect x="278" y="138" width="11" height="11" rx="2" fill="#ebedf0"/>
<rect x="278" y="152" width="11" height="11" rx="2" fill="#ebedf0"/>
<rect x="292" y="68" width="11" height="11" rx="2" fill="#ebedf0"/>
<rect x="292" y="82" width="11" height="11" rx="2" fill="#ebedf0"/>
<rect x="292" y="96" width="11" height="11" rx="2" fill="#ebedf0"/>
<rect x="292" y="110" width="11" height="11" rx="2" fill="#ebedf0"/>
<rect x="292" y="124" width="11" height="11" rx="2" fill="#ebedf0"/>
<rect x="292" y="138" width="11" height="11" rx="2" fill="#ebedf0"/>
<rect x="292" y="152" width="11" height="11" rx="2" fill="#ebedf0"/>
<rect x="306" y="68" width="11" height="11" rx="2" fill="#ebedf0"/>
<rect x="306" y="82" width="11" height="11" rx="2" fill="#ebedf0"/>
<rect x="306" y="96" width="11" height="11" rx="2" fill="#ebedf0"/>
<rect x="306" y="110" width="11" height="11" rx="2" fill="#ebedf0"/>
<rect x="306" y="124" width="11" height="11" rx="2" fill="#ebedf0"/>
<rect x="306" y="138" width="11" height="11" rx="2" fill="#ebedf0"/>
<rect x="306" y="152" width="11" height="11" rx="2" fill="#ebedf0"/>
<rect x="320" y="68" width="11" height="11" rx="2" fill="#ebedf0"/>
<rect x="320" y="82" width="11" height="11" rx="2" fill="#ebedf0"/>
<rect x="320" y="96" width="11" height="11" rx="2" fill="#ebedf0"/>
<rect x="320" y="110" width="11" height="11" rx="2" fill="#ebedf0"/>
<rect x="320" y="124" width="11" height="11" rx="2" fill="#1a5bea"/>
<rect x="320" y="138" width="11" height="11" rx="2" fill="#ebedf0"/>
<rect x="320" y="152" width="11" height="11" rx="2" fill="#ebedf0"/>
<rect x="334" y="68" width="11" height="11" rx="2" fill="#ebedf0"/>
<rect x="334" y="82" width="11" height="11" rx="2" fill="#ebedf0"/>
<rect x="334" y="96" width="11" height="11" rx="2" fill="#ebedf0"/>
<rect x="334" y="110" width="11" height="11" rx="2" fill="#ebedf0"/>
<rect x="334" y="124" width="11" height="11" rx="2" fill="#ebedf0"/>
<rect x="334" y="138" width="11" height="11" rx="2" fill="#ebedf0"/>
<rect x="334" y="152" width="11" height="11" rx="2" fill="#ebedf0"/>
<rect x="348" y="68" width="11" height="11" rx="2" fill="#ebedf0"/>
<rect x="348" y="82" width="11" height="11" rx="2" fill="#ebedf0"/>
<rect x="348" y="96" width="11" height="11" rx="2" fill="#ebedf0"/>
<rect x="348" y="110" width="11" height="11" rx="2" fill="#ebedf0"/>
<rect x="348" y="124" width="11" height="11" rx="2" fill="#ebedf0"/>
<rect x="348" y="138" width="11" height="11" rx="2" fill="#ebedf0"/>
<rect x="348" y="152" width="11" height="11" rx="2" fill="#ebedf0"/>
<rect x="362" y="68" width="11" height="11" rx="2" fill="#ebedf0"/>
<rect x="362" y="82" width="11" height="11" rx="2" fill="#ebedf0"/>
<rect x="362" y="96" width="11" height="11" rx="2" fill="#ebedf0"/>
<rect x="362" y="110" width="11" height="11" rx="2" fill="#ebedf0"/>
<rect x="362" y="124" width="11" height="11" rx="2" fill="#ebedf0"/>
<rect x="362" y="138" width="11" height="11" rx="2" fill="#ebedf0"/>
<rect x="362" y="152" width="11" height="11" rx="2" fill="#ebedf0"/>
<rect x="376" y="68" width="11" height="11" rx="2" fill="#ebedf0"/>
<rect x="376" y="82" width="11" height="11" rx="2" fill="#8faff5"/>
<rect x="376" y="96" width="11" height="11" rx="2" fill="#ebedf0"/>
<rect x="376" y="110" width="11" height="11" rx="2" fill="#ebedf0"/>
<rect x="376" y="124" width="11" height="11" rx="2" fill="#ebedf0"/>
<rect x="376" y="138" width="11" height="11" rx="2" fill="#ebedf0"/>
<rect x="376" y="152" width="11" height="11" rx="2" fill="#ebedf0"/>
<rect x="390" y="68" width="11" height="11" rx="2" fill="#ebedf0"/>
<rect x="390" y="82" width="11" height="11" rx="2" fill="#ebedf0"/>
<rect x="390" y="96" width="11" height="11" rx="2" fill="#ebedf0"/>
<rect x="390" y="110" width="11" height="11" rx="2" fill="#ebedf0"/>
<rect x="390" y="124" width="11" height="11" rx="2" fill="#ebedf0"/>
<rect x="390" y="138" width="11" height="11" rx="2" fill="#ebedf0"/>
<rect x="390" y="152" width="11" height="11" rx="2" fill="#ebedf0"/>
<rect x="404" y="68" width="11" height="11" rx="2" fill="#ebedf0"/>
<rect x="404" y="82" width="11" height="11" rx="2" fill="#ebedf0"/>
<rect x="404" y="96" width="11" height="11" rx="2" fill="#ebedf0"/>
<rect x="404" y="110" width="11" height="11" rx="2" fill="#ebedf0"/>
<rect x="404" y="124" width="11" height="11" rx="2" fill="#ebedf0"/>
<rect x="404" y="138" width="11" height="11" rx="2" fill="#ebedf0"/>
<rect x="404" y="152" width="11" height="11" rx="2" fill="#ebedf0"/>
<rect x="418" y="68" width="11" height="11" rx="2" fill="#ebedf0"/>
<rect x="418" y="82" width="11" height="11" rx="2" fill="#ebedf0"/>
<rect x="418" y="96" width="11" height="11" rx="2" fill="#ebedf0"/>
<rect x="418" y="110" width="11" height="11" rx="2" fill="#ebedf0"/>
<rect x="418" y="124" width="11" height="11" rx="2" fill="#ebedf0"/>
<rect x="418" y="138" width="11" height="11" rx="2" fill="#ebedf0"/>
<rect x="418" y="152" width="11" height="11" rx="2" fill="#ebedf0"/>
<rect x="432" y="68" width="11" height="11" rx="2" fill="#ebedf0"/>
<rect x="432" y="82" width="11" height="11" rx="2" fill="#ebedf0"/>
<rect x="432" y="96" width="11" height="11" rx="2" fill="#ebedf0"/>
<rect x="432" y="110" width="11" height="11" rx="2" fill="#ebedf0"/>
<rect x="432" y="124" width="11" height="11" rx="2" fill="#ebedf0"/>
<rect x="432" y="138" width="11" height="11" rx="2" fill="#ebedf0"/>
<rect x="432" y="152" width="11" height="11" rx="2" fill="#ebedf0"/>
<rect x="446" y="68" width="11" height="11" rx="2" fill="#ebedf0"/>
<rect x="446" y="82" width="11" height="11" rx="2" fill="#ebedf0"/>
<rect x="446" y="96" width="11" height="11" rx="2" fill="#ebedf0"/>
<rect x="446" y="110" width="11" height="11" rx="2" fill="#ebedf0"/>
<rect x="446" y="124" width="11" height="11" rx="2" fill="#ebedf0"/>
<rect x="446" y="138" width="11" height="11" rx="2" fill="#ebedf0"/>
<rect x="446" y="152" width="11" height="11" rx="2" fill="#ebedf0"/>
<rect x="460" y="68" width="11" height="11" rx="2" fill="#ebedf0"/>
<rect x="460" y="82" width="11" height="11" rx="2" fill="#0f3fa8"/>
<rect x="460" y="96" width="11" height="11" rx="2" fill="#ebedf0"/>
<rect x="460" y="110" width="11" height="11" rx="2" fill="#ebedf0"/>
<rect x="460" y="124" width="11" height="11" rx="2" fill="#ebedf0"/>
<rect x="460" y="138" width="11" height="11" rx="2" fill="#ebedf0"/>
<rect x="460" y="152" width="11" height="11" rx="2" fill="#ebedf0"/>
<rect x="474" y="68" width="11" height="11" rx="2" fill="#ebedf0"/>
<rect x="474" y="82" width="11" height="11" rx="2" fill="#ebedf0"/>
<rect x="474" y="96" width="11" height="11" rx="2" fill="#ebedf0"/>
<rect x="474" y="110" width="11" height="11" rx="2" fill="#ebedf0"/>
<rect x="474" y="124" width="11" height="11" rx="2" fill="#ebedf0"/>
<rect x="474" y="138" width="11" height="11" rx="2" fill="#ebedf0"/>
<rect x="474" y="152" width="11" height="11" rx="2" fill="#ebedf0"/>
<rect x="488" y="68" width="11" height="11" rx="2" fill="#ebedf0"/>
<rect x="488" y="82" width="11" height="11" rx="2" fill="#497dee"/>
<rect x="488" y="96" width="11" height="11" rx="2" fill="#ebedf0"/>
<rect x="488" y="110" width="11" height="11" rx="2" fill="#ebedf0"/>
<rect x="488" y="124" width="11" height="11" rx="2" fill="#ebedf0"/>
<rect x="488" y="138" width="11" height="11" rx="2" fill="#ebedf0"/>
<rect x="488" y="152" width="11" height="11" rx="2" fill="#ebedf0"/>
<rect x="502" y="68" width="11" height="11" rx="2" fill="#ebedf0"/>
<rect x="502" y="82" width="11" height="11" rx="2" fill="#ebedf0"/>
<rect x="502" y="96" width="11" height="11" rx="2" fill="#ebedf0"/>
<rect x="502" y="110" width="11" height="11" rx="2" fill="#ebedf0"/>
<rect x="502" y="124" width="11" height="11" rx="2" fill="#ebedf0"/>
<rect x="502" y="138" width="11" height="11" rx="2" fill="#ebedf0"/>
<rect x="502" y="152" width="11" height="11" rx="2" fill="#ebedf0"/>
<rect x="516" y="68" width="11" height="11" rx="2" fill="#ebedf0"/>
<rect x="516" y="82" width="11" height="11" rx="2" fill="#ebedf0"/>
<rect x="516" y="96" width="11" height="11" rx="2" fill="#ebedf0"/>
<rect x="516" y="110" width="11" height="11" rx="2" fill="#ebedf0"/>
<rect x="516" y="124" width="11" height="11" rx="2" fill="#ebedf0"/>
<rect x="516" y="138" width="11" height="11" rx="2" fill="#ebedf0"/>
<rect x="516" y="152" width="11" height="11" rx="2" fill="#ebedf0"/>
<rect x="530" y="68" width="11" height="11" rx="2" fill="#ebedf0"/>
<rect x="530" y="82" width="11" height="11" rx="2" fill="#ebedf0"/>
<rect x="530" y="96" width="11" height="11" rx="2" fill="#ebedf0"/>
<rect x="530" y="110" width="11" height="11" rx="2" fill="#ebedf0"/>
<rect x="530" y="124" width="11" height="11" rx="2" fill="#ebedf0"/>
<rect x="530" y="138" width="11" height="11" rx="2" fill="#ebedf0"/>
<rect x="530" y="152" width="11" height="11" rx="2" fill="#ebedf0"/>
<rect x="544" y="68" width="11" height="11" rx="2" fill="#ebedf0"/>
<rect x="544" y="82" width="11" height="11" rx="2" fill="#ebedf0"/>
<rect x="544" y="96" width="11" height="11" rx="2" fill="#ebedf0"/>
<rect x="544" y="110" width="11" height="11" rx="2" fill="#ebedf0"/>
<rect x="544" y="124" width="11" height="11" rx="2" fill="#ebedf0"/>
<rect x="544" y="138" width="11" height="11" rx="2" fill="#ebedf0"/>
<rect x="544" y="152" width="11" height="11" rx="2" fill="#ebedf0"/>
<rect x="558" y="68" width="11" height="11" rx="2" fill="#ebedf0"/>
<rect x="558" y="82" width="11" height="11" rx="2" fill="#ebedf0"/>
<rect x="558" y="96" width="11" height="11" rx="2" fill="#ebedf0"/>
<rect x="558" y="110" width="11" height="11" rx="2" fill="#ebedf0"/>
<rect x="558" y="124" width="11" height="11" rx="2" fill="#ebedf0"/>
<rect x="558" y="138" width="11" height="11" rx="2" fill="#ebedf0"/>
<rect x="558" y="152" width="11" height="11" rx="2" fill="#ebedf0"/>
<rect x="572" y="68" width="11" height="11" rx="2" fill="#ebedf0"/>
<rect x="572" y="82" width="11" height="11" rx="2" fill="#ebedf0"/>
<rect x="572" y="96" width="11" height="11" rx="2" fill="#ebedf0"/>
<rect x="572" y="110" width="11" height="11" rx="2" fill="#316cec"/>
<rect x="572" y="124" width="11" height="11" rx="2" fill="#ebedf0"/>
<rect x="572" y="138" width="11" height="11" rx="2" fill="#ebedf0"/>
<rect x="572" y="152" width="11" height="11" rx="2" fill="#ebedf0"/>
<rect x="586" y="68" width="11" height="11" rx="2" fill="#ebedf0"/>
<rect x="586" y="82" width="11" height="11" rx="2" fill="#ebedf0"/>
<rect x="586" y="96" width="11" height="11" rx="2" fill="#ebedf0"/>
<rect x="586" y="110" width="11" height="11" rx="2" fill="#ebedf0"/>
<rect x="586" y="124" width="11" height="11" rx="2" fill="#ebedf0"/>
<rect x="586" y="138" width="11" height="11" rx="2" fill="#ebedf0"/>
<rect x="586" y="152" width="11" height="11" rx="2" fill="#ebedf0"/>
<rect x="600" y="68" width="11" height="11" rx="2" fill="#ebedf0"/>
<rect x="600" y="82" width="11" height="11" rx="2" fill="#ebedf0"/>
<rect x="600" y="96" width="11" height="11" rx="2" fill="#ebedf0"/>
<rect x="600" y="110" width="11" height="11" rx="2" fill="#ebedf0"/>
<rect x="600" y="124" width="11" height="11" rx="2" fill="#ebedf0"/>
<rect x="600" y="138" width="11" height="11" rx="2" fill="#ebedf0"/>
<rect x="600" y="152" width="11" height="11" rx="2" fill="#ebedf0"/>
<rect x="614" y="68" width="11" height="11" rx="2" fill="#ebedf0"/>
<rect x="614" y="82" width="11" height="11" rx="2" fill="#ebedf0"/>
<rect x="614" y="96" width="11" height="11" rx="2" fill="#ebedf0"/>
<rect x="614" y="110" width="11" height="11" rx="2" fill="#789ef3"/>
<rect x="614" y="124" width="11" height="11" rx="2" fill="#ebedf0"/>
<rect x="614" y="138" width="11" height="11" rx="2" fill="#ebedf0"/>
<rect x="614" y="152" width="11" height="11" rx="2" fill="#ebedf0"/>
<rect x="628" y="68" width="11" height="11" rx="2" fill="#ebedf0"/>
<rect x="628" y="82" width="11" height="11" rx="2" fill="#ebedf0"/>
<rect x="628" y="96" width="11" height="11" rx="2" fill="#ebedf0"/>
<rect x="628" y="110" width="11" height="11" rx="2" fill="#ebedf0"/>
<rect x="628" y="124" width="11" height="11" rx="2" fill="#ebedf0"/>
<rect x="628" y="138" width="11" height="11" rx="2" fill="#ebedf0"/>
<rect x="628" y="152" width="11" height="11" rx="2" fill="#ebedf0"/>
<rect x="642" y="68" width="11" height="11" rx="2" fill="#ebedf0"/>
<rect x="642" y="82" width="11" height="11" rx="2" fill="#ebedf0"/>
<rect x="642" y="96" width="11" height="11" rx="2" fill="#ebedf0"/>
<rect x="642" y="110" width="11" height="11" rx="2" fill="#ebedf0"/>
<rect x="642" y="124" width="11" height="11" rx="2" fill="#ebedf0"/>
<rect x="642" y="138" width="11" height="11" rx="2" fill="#ebedf0"/>
<rect x="642" y="152" width="11" height="11" rx="2" fill="#ebedf0"/>
<rect x="656" y="68" width="11" height="11" rx="2" fill="#ebedf0"/>
<rect x="656" y="82" width="11" height="11" rx="2" fill="#ebedf0"/>
<rect x="656" y="96" width="11" height="11" rx="2" fill="#ebedf0"/>
<rect x="656" y="110" width="11" height="11" rx="2" fill="#ebedf0"/>
<rect x="656" y="124" width="11" height="11" rx="2" fill="#ebedf0"/>
<rect x="656" y="138" width="11" height="11" rx="2" fill="#ebedf0"/>
<rect x="656" y="152" width="11" height="11" rx="2" fill="#ebedf0"/>
<rect x="670" y="68" width="11" height="11" rx="2" fill="#ebedf0"/>
<rect x="670" y="82" width="11" height="11" rx="2" fill="#ebedf0"/>
<rect x="670" y="96" width="11" height="11" rx="2" fill="#ebedf0"/>
<rect x="670" y="110" width="11" height="11" rx="2" fill="#ebedf0"/>
<rect x="670" y="124" width="11" height="11" rx="2" fill="#ebedf0"/>
<rect x="670" y="138" width="11" height="11" rx="2" fill="#ebedf0"/>
<rect x="670" y="152" width="11" height="11" rx="2" fill="#ebedf0"/>
<rect x="684" y="68" width="11" height="11" rx="2" fill="#ebedf0"/>
<rect x="684" y="82" width="11" height="11" rx="2" fill="#ebedf0"/>
<rect x="684" y="96" width="11" height="11" rx="2" fill="#ebedf0"/>
<rect x="684" y="110" width="11" height="11" rx="2" fill="#ebedf0"/>
<rect x="684" y="124" width="11" height="11" rx="2" fill="#ebedf0"/>
<rect x="684" y="138" width="11" height="11" rx="2" fill="#ebedf0"/>
<rect x="684" y="152" width="11" height="11" rx="2" fill="#ebedf0"/>
<rect x="698" y="68" width="11" height="11" rx="2" fill="#ebedf0"/>
<rect x="698" y="82" width="11" height="11" rx="2" fill="#ebedf0"/>
<rect x="698" y="96" width="11" height="11" rx="2" fill="#ebedf0"/>
<rect x="698" y="110" width="11" height="11" rx="2" fill="#1451d7"/>
<rect x="698" y="124" width="11" height="11" rx="2" fill="#ebedf0"/>
<rect x="698" y="138" width="11" height="11" rx="2" fill="#ebedf0"/>
<rect x="698" y="152" width="11" height="11" rx="2" fill="#ebedf0"/>
<rect x="712" y="68" width="11" height="11" rx="2" fill="#ebedf0"/>
<rect x="712" y="82" width="11" height="11" rx="2" fill="#ebedf0"/>
<rect x="712" y="96" width="11" height="11" rx="2" fill="#ebedf0"/>
<rect x="712" y="110" width="11" height="11" rx="2" fill="#ebedf0"/>
<rect x="712" y="124" width="11" height="11" rx="2" fill="#ebedf0"/>
<rect x="712" y="138" width="11" height="11" rx="2" fill="#ebedf0"/>
<rect x="712" y="152" width="11" height="11" rx="2" fill="#ebedf0"/>
<rect x="726" y="68" width="11" height="11" rx="2" fill="#ebedf0"/>
<rect x="726" y="82" width="11" height="11" rx="2" fill="#ebedf0"/>
<rect x="726" y="96" width="11" height="11" rx="2" fill="#608df0"/>
<rect x="726" y="110" width="11" height="11" rx="2" fill="#ebedf0"/>
<rect x="726" y="124" width="11" height="11" rx="2" fill="#ebedf0"/>
<rect x="726" y="138" width="11" height="11" rx="2" fill="#ebedf0"/>
<rect x="726" y="152" width="11" height="11" rx="2" fill="#ebedf0"/>
<rect x="740" y="68" width="11" height="11" rx="2" fill="#ebedf0"/>
<rect x="740" y="82" width="11" height="11" rx="2" fill="#ebedf0"/>
<rect x="740" y="96" width="11" height="11" rx="2" fill="#ebedf0"/>
<rect x="740" y="110" width="11" height="11" rx="2" fill="#ebedf0"/>
<rect x="740" y="124" width="11" height="11" rx="2" fill="#ebedf0"/>
<rect x="740" y="138" width="11" height="11" rx="2" fill="#ebedf0"/>
<rect x="740" y="152" width="11" height="11" rx="2" fill="#ebedf0"/>
<rect x="754" y="68" width="11" height="11" rx="2" fill="#ebedf0"/>
<rect x="754" y="82" width="11" height="11" rx="2" fill="#ebedf0"/>
<rect x="754" y="96" width="11" height="11" rx="2" fill="#ebedf0"/>
<rect x="754" y="110" width="11" height="11" rx="2" fill="#ebedf0"/>
<rect x="754" y="124" width="11" height="11" rx="2" fill="#ebedf0"/>
<rect x="754" y="138" width="11" height="11" rx="2" fill="#ebedf0"/>
<rect x="754" y="152" width="11" height="11" rx="2" fill="#ebedf0"/>
<rect x="768" y="68" width="11" height="11" rx="2" fill="#ebedf0"/>
<rect x="768" y="82" width="11" height="11" rx="2" fill="#ebedf0"/>
<rect x="768" y="96" width="11" height="11" rx="2" fill="#1248c0"/>
<rect x="768" y="110" width="11" height="11" rx="2" fill="#ebedf0"/>
<rect x="768" y="124" width="11" height="11" rx="2" fill="#ebedf0"/>
<rect x="768" y="138" width="11" height="11" rx="2" fill="#ebedf0"/>
<rect x="768" y="152" width="11" height="11" rx="2" fill="#ebedf0"/>
<rect x="782" y="68" width="11" height="11" rx="2" fill="#ebedf0"/>
<rect x="782" y="82" width="11" height="11" rx="2" fill="#ebedf0"/>
<rect x="782" y="96" width="11" height="11" rx="2" fill="#ebedf0"/>
<rect x="782" y="110" width="11" height="11" rx="2" fill="#ebedf0"/>
<text x="810" y="173" text-anchor="end" font-size="9" fill="#94a3b8" opacity="0.6">slickfast.com</text>
</svg>
