<svg xmlns="http://www.w3.org/2000/svg" viewBox="0 0 800 450" width="800" height="450" style="max-width:100%;height:auto" font-family="Inter, system-ui, -apple-system, sans-serif">
<rect x="0" y="0" width="800" height="450" fill="#ffffff"/>
<line x1="72" y1="54" x2="72" y2="386" stroke="#e2e8f0" stroke-width="1"/>
<line x1="668" y1="54" x2="668" y2="386" stroke="#e2e8f0" stroke-width="1"/>
<line x1="72" y1="286.4" x2="668" y2="128.7" stroke="#2563eb" stroke-width="2.5" stroke-linecap="round"/>
<circle cx="72" cy="286.4" r="4" fill="#2563eb"/>
<circle cx="668" cy="128.7" r="4" fill="#2563eb"/>
<text x="62" y="290.4" text-anchor="end" font-size="12" font-weight="600" fill="#334155">120</text>
<text x="678" y="132.7" font-size="12" font-weight="600" fill="#334155">310 <tspan fill="#059669">(+190)</tspan></text>
<line x1="72" y1="220" x2="668" y2="236.6" stroke="#7c3aed" stroke-width="2.5" stroke-linecap="round"/>
<circle cx="72" cy="220" r="4" fill="#7c3aed"/>
<circle cx="668" cy="236.6" r="4" fill="#7c3aed"/>
<text x="62" y="224" text-anchor="end" font-size="12" font-weight="600" fill="#334155">200</text>
<text x="678" y="240.6" font-size="12" font-weight="600" fill="#334155">180 <tspan fill="#dc2626">(-20)</tspan></text>
<line x1="72" y1="311.3" x2="668" y2="253.2" stroke="#059669" stroke-width="2.5" stroke-linecap="round"/>
<circle cx="72" cy="311.3" r="4" fill="#059669"/>
<circle cx="668" cy="253.2" r="4" fill="#059669"/>
<text x="62" y="315.3" text-anchor="end" font-size="12" font-weight="600" fill="#334155">90</text>
<text x="678" y="257.2" font-size="12" font-weight="600" fill="#334155">160 <tspan fill="#059669">(+70)</tspan></text>
<text x="72" y="408" text-anchor="middle" font-size="12" font-weight="600" fill="#475569">2023</text>
<text x="668" y="408" text-anchor="middle" font-size="12" font-weight="600" fill="#475569">2024</text>
<circle cx="255.72" cy="430" r="5" fill="#2563eb"/>
<text x="266.72" y="434" font-size="12" fill="#475569">Product A</text>
<circle cx="355.24" cy="430" r="5" fill="#7c3aed"/>
<text x="366.24" y="434" font-size="12" fill="#475569">Product B</text>
<circle cx="454.76" cy="430" r="5" fill="#059669"/>
<text x="465.76" y="434" font-size="12" fill="#475569">Product C</text>
<text x="400" y="33" text-anchor="middle" font-size="18" font-weight="700" fill="#0f172a">Market Share: 2023 → 2024</text>
<text x="792" y="442" text-anchor="end" font-size="10" fill="#94a3b8" opacity="0.7">slickfast.com</text>
</svg>
