<svg xmlns="http://www.w3.org/2000/svg" viewBox="0 0 800 450" width="800" height="450" font-family="Inter, system-ui, -apple-system, sans-serif">
<rect x="0" y="0" width="800" height="450" fill="#ffffff"/>
<line x1="56" y1="386" x2="776" y2="386" stroke="#e2e8f0" stroke-width="1"/>
<text x="48" y="390" text-anchor="end" font-size="11" fill="#64748b">0</text>
<line x1="56" y1="319.6" x2="776" y2="319.6" stroke="#e2e8f0" stroke-width="1"/>
<text x="48" y="323.6" text-anchor="end" font-size="11" fill="#64748b">20</text>
<line x1="56" y1="253.2" x2="776" y2="253.2" stroke="#e2e8f0" stroke-width="1"/>
<text x="48" y="257.2" text-anchor="end" font-size="11" fill="#64748b">40</text>
<line x1="56" y1="186.8" x2="776" y2="186.8" stroke="#e2e8f0" stroke-width="1"/>
<text x="48" y="190.8" text-anchor="end" font-size="11" fill="#64748b">60</text>
<line x1="56" y1="120.4" x2="776" y2="120.4" stroke="#e2e8f0" stroke-width="1"/>
<text x="48" y="124.4" text-anchor="end" font-size="11" fill="#64748b">80</text>
<line x1="56" y1="54" x2="776" y2="54" stroke="#e2e8f0" stroke-width="1"/>
<text x="48" y="58" text-anchor="end" font-size="11" fill="#64748b">100</text>
<rect x="98" y="286.4" width="96" height="99.6" fill="#2563eb"/>
<text x="146" y="300.4" text-anchor="middle" font-size="11" font-weight="700" fill="#ffffff">Core</text>
<text x="146" y="379" text-anchor="middle" font-size="12" font-weight="600" fill="#ffffff">30</text>
<rect x="98" y="226.64" width="96" height="59.76" fill="#7c3aed"/>
<text x="146" y="240.64" text-anchor="middle" font-size="11" font-weight="700" fill="#ffffff">Add-ons</text>
<text x="146" y="279.4" text-anchor="middle" font-size="12" font-weight="600" fill="#ffffff">18</text>
<path d="M98,226.64 L98,191.8 Q98,186.8 103,186.8 L189,186.8 Q194,186.8 194,191.8 L194,226.64 Z" fill="#059669"/>
<text x="146" y="200.8" text-anchor="middle" font-size="11" font-weight="700" fill="#1a1a1a">Services</text>
<text x="146" y="219.64" text-anchor="middle" font-size="12" font-weight="600" fill="#1a1a1a">12</text>
<text x="146" y="404" text-anchor="middle" font-size="12" fill="#475569">Q1</text>
<rect x="278" y="269.8" width="96" height="116.2" fill="#2563eb"/>
<text x="326" y="283.8" text-anchor="middle" font-size="11" font-weight="700" fill="#ffffff">Core</text>
<text x="326" y="379" text-anchor="middle" font-size="12" font-weight="600" fill="#ffffff">35</text>
<rect x="278" y="203.4" width="96" height="66.4" fill="#7c3aed"/>
<text x="326" y="217.4" text-anchor="middle" font-size="11" font-weight="700" fill="#ffffff">Add-ons</text>
<text x="326" y="262.8" text-anchor="middle" font-size="12" font-weight="600" fill="#ffffff">20</text>
<path d="M278,203.4 L278,161.92 Q278,156.92 283,156.92 L369,156.92 Q374,156.92 374,161.92 L374,203.4 Z" fill="#059669"/>
<text x="326" y="170.92" text-anchor="middle" font-size="11" font-weight="700" fill="#1a1a1a">Services</text>
<text x="326" y="196.4" text-anchor="middle" font-size="12" font-weight="600" fill="#1a1a1a">14</text>
<text x="326" y="404" text-anchor="middle" font-size="12" fill="#475569">Q2</text>
<rect x="458" y="253.2" width="96" height="132.8" fill="#2563eb"/>
<text x="506" y="267.2" text-anchor="middle" font-size="11" font-weight="700" fill="#ffffff">Core</text>
<text x="506" y="379" text-anchor="middle" font-size="12" font-weight="600" fill="#ffffff">40</text>
<rect x="458" y="190.12" width="96" height="63.08" fill="#7c3aed"/>
<text x="506" y="204.12" text-anchor="middle" font-size="11" font-weight="700" fill="#ffffff">Add-ons</text>
<text x="506" y="246.2" text-anchor="middle" font-size="12" font-weight="600" fill="#ffffff">19</text>
<path d="M458,190.12 L458,142 Q458,137 463,137 L549,137 Q554,137 554,142 L554,190.12 Z" fill="#059669"/>
<text x="506" y="151" text-anchor="middle" font-size="11" font-weight="700" fill="#1a1a1a">Services</text>
<text x="506" y="183.12" text-anchor="middle" font-size="12" font-weight="600" fill="#1a1a1a">16</text>
<text x="506" y="404" text-anchor="middle" font-size="12" fill="#475569">Q3</text>
<rect x="638" y="236.6" width="96" height="149.4" fill="#2563eb"/>
<text x="686" y="250.6" text-anchor="middle" font-size="11" font-weight="700" fill="#ffffff">Core</text>
<text x="686" y="379" text-anchor="middle" font-size="12" font-weight="600" fill="#ffffff">45</text>
<rect x="638" y="156.92" width="96" height="79.68" fill="#7c3aed"/>
<text x="686" y="170.92" text-anchor="middle" font-size="11" font-weight="700" fill="#ffffff">Add-ons</text>
<text x="686" y="229.6" text-anchor="middle" font-size="12" font-weight="600" fill="#ffffff">24</text>
<path d="M638,156.92 L638,112.12 Q638,107.12 643,107.12 L729,107.12 Q734,107.12 734,112.12 L734,156.92 Z" fill="#059669"/>
<text x="686" y="121.12" text-anchor="middle" font-size="11" font-weight="700" fill="#1a1a1a">Services</text>
<text x="686" y="149.92" text-anchor="middle" font-size="12" font-weight="600" fill="#1a1a1a">15</text>
<text x="686" y="404" text-anchor="middle" font-size="12" fill="#475569">Q4</text>
<rect x="279.84" y="425" width="11" height="11" rx="2.5" fill="#2563eb"/>
<text x="296.84" y="434" font-size="12" fill="#475569">Core</text>
<rect x="342.96" y="425" width="11" height="11" rx="2.5" fill="#7c3aed"/>
<text x="359.96" y="434" font-size="12" fill="#475569">Add-ons</text>
<rect x="427.92" y="425" width="11" height="11" rx="2.5" fill="#059669"/>
<text x="444.92" y="434" font-size="12" fill="#475569">Services</text>
<text x="400" y="33" text-anchor="middle" font-size="18" font-weight="700" fill="#0f172a">Revenue by Product Line</text>
<text x="792" y="442" text-anchor="end" font-size="10" fill="#94a3b8" opacity="0.7">slickfast.com</text>
</svg>
